HIERARCHY
ROOT hips
{
  OFFSET 0 9.313263304106702 1.2146308026317778
  CHANNELS 6 Xposition Yposition Zposition Yrotation Xrotation Zrotation
  JOINT spine
  {
    OFFSET -6.402521e-31 0.5173342420023708 0
    CHANNELS 3 Yrotation Xrotation Zrotation
    JOINT chest
    {
      OFFSET 0 1.130544299341115 0
      CHANNELS 3 Yrotation Xrotation Zrotation
      JOINT upperChest
      {
        OFFSET 0 1.0863555061129995 0
        CHANNELS 3 Yrotation Xrotation Zrotation
        JOINT neck
        {
          OFFSET 0 1.3773706506454462 0
          CHANNELS 3 Yrotation Xrotation Zrotation
          JOINT head
          {
            OFFSET 0 0.7374408940073979 0
            CHANNELS 3 Yrotation Xrotation Zrotation
            JOINT leftEye
            {
              OFFSET 0.25066580148932727 0.6408406698778757 0.15963719178883284
              CHANNELS 3 Yrotation Xrotation Zrotation
              End Site
              {
                OFFSET 0.25066580148932727 0.6408406698778757 0.15963719178883284
              }
            }
            JOINT rightEye
            {
              OFFSET -0.25066576739704244 0.6408406384191823 0.15963727561643756
              CHANNELS 3 Yrotation Xrotation Zrotation
              End Site
              {
                OFFSET -0.25066576739704244 0.6408406384191823 0.15963727561643756
              }
            }
          }
        }
        JOINT leftShoulder
        {
          OFFSET 0.3761817444281191 1.0539491987447769 0
          CHANNELS 3 Yrotation Xrotation Zrotation
          JOINT leftUpperArm
          {
            OFFSET 0.8702844380000002 0 0
            CHANNELS 3 Yrotation Xrotation Zrotation
            JOINT leftLowerArm
            {
              OFFSET 2.198527310000323 0 0
              CHANNELS 3 Yrotation Xrotation Zrotation
              JOINT leftHand
              {
                OFFSET 2.146852313968281 0 0
                CHANNELS 3 Yrotation Xrotation Zrotation
                JOINT leftIndexProximal
                {
                  OFFSET 0.6585177834681599 0.07380250427007962 0.18382213159631788
                  CHANNELS 3 Yrotation Xrotation Zrotation
                  JOINT leftIndexIntermediate
                  {
                    OFFSET 0.3323021288626682 -0.009606893929485771 -0.012820872253340998
                    CHANNELS 3 Yrotation Xrotation Zrotation
                    JOINT leftIndexDistal
                    {
                      OFFSET 0.2045908926985518 -0.0071133989147997845 -0.006828784783599051
                      CHANNELS 3 Yrotation Xrotation Zrotation
                      End Site
                      {
                        OFFSET 0.2045908926985518 -0.0071133989147997845 -0.006828784783599051
                      }
                    }
                  }
                }
                JOINT leftLittleProximal
                {
                  OFFSET 0.6110054258835662 0.07380246363125398 -0.29175655876064077
                  CHANNELS 3 Yrotation Xrotation Zrotation
                  JOINT leftLittleIntermediate
                  {
                    OFFSET 0.3144281999999998 -2.5124724523095665e-9 1.8658118799974588e-7
                    CHANNELS 3 Yrotation Xrotation Zrotation
                    JOINT leftLittleDistal
                    {
                      OFFSET 0.18116185580251631 0.002815456192251098 0.0034826415518049436
                      CHANNELS 3 Yrotation Xrotation Zrotation
                      End Site
                      {
                        OFFSET 0.18116185580251631 0.002815456192251098 0.0034826415518049436
                      }
                    }
                  }
                }
                JOINT leftMiddleProximal
                {
                  OFFSET 0.6637478005691111 0.07380246480054087 0.02046981859247815
                  CHANNELS 3 Yrotation Xrotation Zrotation
                  JOINT leftMiddleIntermediate
                  {
                    OFFSET 0.3705733999999994 -2.9611069152224445e-9 9.35054791928458e-8
                    CHANNELS 3 Yrotation Xrotation Zrotation
                    JOINT leftMiddleDistal
                    {
                      OFFSET 0.22861063500000056 -1.82673876025774e-9 -1.6740782024515788e-7
                      CHANNELS 3 Yrotation Xrotation Zrotation
                      End Site
                      {
                        OFFSET 0.22861063500000056 -1.82673876025774e-9 -1.6740782024515788e-7
                      }
                    }
                  }
                }
                JOINT leftRingProximal
                {
                  OFFSET 0.6561845547265777 0.07380246406440083 -0.13588087571513918
                  CHANNELS 3 Yrotation Xrotation Zrotation
                  JOINT leftRingIntermediate
                  {
                    OFFSET 0.3437531000000005 -2.746796123886952e-9 1.4935781944558357e-7
                    CHANNELS 3 Yrotation Xrotation Zrotation
                    JOINT leftRingDistal
                    {
                      OFFSET 0.1983118991198174 -0.002467117924596085 -0.004538141969590015
                      CHANNELS 3 Yrotation Xrotation Zrotation
                      End Site
                      {
                        OFFSET 0.1983118991198174 -0.002467117924596085 -0.004538141969590015
                      }
                    }
                  }
                }
                JOINT leftThumbProximal
                {
                  OFFSET 0.09767004258864787 -0.14930060425447422 -0.07008212897521154
                  CHANNELS 3 Yrotation Xrotation Zrotation
                  JOINT leftThumbIntermediate
                  {
                    OFFSET 0.36682123028154767 -0.015768465060082004 0.28693641268151077
                    CHANNELS 3 Yrotation Xrotation Zrotation
                    JOINT leftThumbDistal
                    {
                      OFFSET 0.21091084272403915 -0.016756648201192714 0.1933767059105508
                      CHANNELS 3 Yrotation Xrotation Zrotation
                      End Site
                      {
                        OFFSET 0.21091084272403915 -0.016756648201192714 0.1933767059105508
                      }
                    }
                  }
                }
              }
            }
          }
        }
        JOINT rightShoulder
        {
          OFFSET -0.37618174442811925 1.0539491987447769 0
          CHANNELS 3 Yrotation Xrotation Zrotation
          JOINT rightUpperArm
          {
            OFFSET -0.870284438 0 0
            CHANNELS 3 Yrotation Xrotation Zrotation
            JOINT rightLowerArm
            {
              OFFSET -2.1985273100003235 0 0
              CHANNELS 3 Yrotation Xrotation Zrotation
              JOINT rightHand
              {
                OFFSET -2.1468523139682802 0 0
                CHANNELS 3 Yrotation Xrotation Zrotation
                JOINT rightIndexProximal
                {
                  OFFSET -0.6585177834681599 0.07380250427007962 0.18382213159631788
                  CHANNELS 3 Yrotation Xrotation Zrotation
                  JOINT rightIndexIntermediate
                  {
                    OFFSET -0.3323021288626682 -0.009606893929485771 -0.012820872253340998
                    CHANNELS 3 Yrotation Xrotation Zrotation
                    JOINT rightIndexDistal
                    {
                      OFFSET -0.2045908926985518 -0.0071133989147997845 -0.006828784783599051
                      CHANNELS 3 Yrotation Xrotation Zrotation
                      End Site
                      {
                        OFFSET -0.2045908926985518 -0.0071133989147997845 -0.006828784783599051
                      }
                    }
                  }
                }
                JOINT rightLittleProximal
                {
                  OFFSET -0.6110054258835662 0.07380246363125398 -0.29175655876064077
                  CHANNELS 3 Yrotation Xrotation Zrotation
                  JOINT rightLittleIntermediate
                  {
                    OFFSET -0.3144281999999998 -2.5124724523095665e-9 1.8658118799974588e-7
                    CHANNELS 3 Yrotation Xrotation Zrotation
                    JOINT rightLittleDistal
                    {
                      OFFSET -0.18116185580251631 0.002815456192251098 0.0034826415518049436
                      CHANNELS 3 Yrotation Xrotation Zrotation
                      End Site
                      {
                        OFFSET -0.18116185580251631 0.002815456192251098 0.0034826415518049436
                      }
                    }
                  }
                }
                JOINT rightMiddleProximal
                {
                  OFFSET -0.6637478005691111 0.07380246480054087 0.02046981859247815
                  CHANNELS 3 Yrotation Xrotation Zrotation
                  JOINT rightMiddleIntermediate
                  {
                    OFFSET -0.3705733999999994 -2.9611069152224445e-9 9.35054791928458e-8
                    CHANNELS 3 Yrotation Xrotation Zrotation
                    JOINT rightMiddleDistal
                    {
                      OFFSET -0.22861063500000056 -1.82673876025774e-9 -1.6740782024515788e-7
                      CHANNELS 3 Yrotation Xrotation Zrotation
                      End Site
                      {
                        OFFSET -0.22861063500000056 -1.82673876025774e-9 -1.6740782024515788e-7
                      }
                    }
                  }
                }
                JOINT rightRingProximal
                {
                  OFFSET -0.6561845547265777 0.07380246406440083 -0.13588087571513918
                  CHANNELS 3 Yrotation Xrotation Zrotation
                  JOINT rightRingIntermediate
                  {
                    OFFSET -0.3437531000000005 -2.746796123886952e-9 1.4935781944558357e-7
                    CHANNELS 3 Yrotation Xrotation Zrotation
                    JOINT rightRingDistal
                    {
                      OFFSET -0.1983118991198174 -0.002467117924596085 -0.004538141969590015
                      CHANNELS 3 Yrotation Xrotation Zrotation
                      End Site
                      {
                        OFFSET -0.1983118991198174 -0.002467117924596085 -0.004538141969590015
                      }
                    }
                  }
                }
                JOINT rightThumbProximal
                {
                  OFFSET -0.09767004258864787 -0.14930060425447422 -0.07008212897521154
                  CHANNELS 3 Yrotation Xrotation Zrotation
                  JOINT rightThumbIntermediate
                  {
                    OFFSET -0.36682123028154767 -0.015768465060082004 0.28693641268151077
                    CHANNELS 3 Yrotation Xrotation Zrotation
                    JOINT rightThumbDistal
                    {
                      OFFSET -0.21091084272403915 -0.016756648201192714 0.1933767059105508
                      CHANNELS 3 Yrotation Xrotation Zrotation
                      End Site
                      {
                        OFFSET -0.21091084272403915 -0.016756648201192714 0.1933767059105508
                      }
                    }
                  }
                }
              }
            }
          }
        }
      }
    }
  }
  JOINT leftUpperLeg
  {
    OFFSET 0.7715603 -0.3993844658041501 0
    CHANNELS 3 Yrotation Xrotation Zrotation
    JOINT leftLowerLeg
    {
      OFFSET 0 -3.529830000249343 0
      CHANNELS 3 Yrotation Xrotation Zrotation
      JOINT leftFoot
      {
        OFFSET 0 -4.154939295409685 0.004208579085223096
        CHANNELS 3 Yrotation Xrotation Zrotation
        JOINT leftToes
        {
          OFFSET 0 -0.6353414391261847 1.10414981190622
          CHANNELS 3 Yrotation Xrotation Zrotation
          End Site
          {
            OFFSET 0 -0.6015820691747853 1.10414981190622
          }
        }
      }
    }
  }
  JOINT rightUpperLeg
  {
    OFFSET -0.7715603 -0.3993844658041501 0
    CHANNELS 3 Yrotation Xrotation Zrotation
    JOINT rightLowerLeg
    {
      OFFSET 0 -3.529830000249343 0
      CHANNELS 3 Yrotation Xrotation Zrotation
      JOINT rightFoot
      {
        OFFSET 0 -4.154939295409685 0.004208579085223096
        CHANNELS 3 Yrotation Xrotation Zrotation
        JOINT rightToes
        {
          OFFSET 0 -0.6353414391261847 1.10414981190622
          CHANNELS 3 Yrotation Xrotation Zrotation
          End Site
          {
            OFFSET 0 -0.6015820691747853 1.10414981190622
          }
        }
      }
    }
  }
}
MOTION
Frames: 4
Frame Time: 0.03333333333333333
0.1149101826277646 8.740637519142844 1.4549809515263479 5.4023120106463685 -6.839640891615125 2.547661836073699 7.751448751454129 -0.5932593275918464 -7.455547774432765 2.307453762420972 12.472900037633547 5.464555414626724 0 0 0 2.201525356763762 3.3034116165734795 -1.1200081398755202 8.665925983491215 -24.313136863452183 -3.5251995597989105 0 0 0 0 0 0 -4.466011174649902 0.6350940260041705 -4.5956592286818685 -13.307003946118654 45.969998493967296 -59.332565281144205 -113.65014099031688 -0.000059650346543566344 0.00010718071203384505 12.355211814446976 40.540544009666476 -5.4115372234239745 -15.864419865101622 2.7318624276855252 9.024225395394183 0.012010971689622042 -0.000002644474174568963 -0.000019263979523577512 -0.1806788888585819 0.002185515876996934 1.4344217558726253 3.869363835647239 0.7995956462567719 -15.064323305233106 -0.35487476659284345 1.2480644382608195 -33.50464175918496 3.1319705151232866 0.8576360213595912 -27.195904466176696 -10.576971337745054 0.7752915377232648 3.6603174181151896 1.1780844409599893 0.10046802539096196 -9.78880410404974 0.8888502040479496 0.05718968367485897 -7.365503394962562 -5.296273002127805 -0.30942991095971506 -3.5577727837236166 2.5935865892171557 0.5050320609644059 -22.02272583854918 2.166873404315166 0.3484818951294087 -18.25882039582772 -19.663858332095863 7.4897900188994955 -28.062278198613463 6.479849994414787 4.877389923837969 -0.5353015073585277 7.7322038992312665 -0.6248129560270018 8.874067769636955 2.8418592932412046 0.9352615569147794 7.560259560643853 14.009153334872675 -6.609959546595752 64.3946177486757 5.960055403626345 -2.599366326743449e-7 -0.0000011674111458343303 1.3319110127068028 0.03829614315105612 -3.231477794623419 5.209737605496051 -0.15902150884979688 2.0408424433197436 -1.2231347843815321 0.11131111597445702 10.330110117859645 -2.2193925747525465 0.3585157940872678 18.43968178643103 4.756412345231398 -4.265646674498259 32.64033053764338 -1.9577174733991867 0.2611064425738853 17.050688006488866 -1.4115797993753774 0.11298079360001881 11.169783453866737 4.8792636252216965 -0.9845515988908614 10.501864096959473 -1.7966852613048279 0.250540754966325 15.723091038194287 -1.6031312873040526 0.541765444483069 13.666265523566356 4.3753828411727245 -2.135137644698669 21.069294328970255 -1.963655645860369 0.27654513459393815 16.114894960303594 -1.3785417720682047 0.6784928054782443 12.217520976448913 -15.457500440878295 -10.778587778604336 -15.567819573940753 -12.869076908326651 7.130284601978014 -2.5467068244369635 0.7068599369046298 -1.683630130229451 -2.6166413061487996 6.389385809578429 -3.431076761032759 -7.536768928369487 -6.039775498492184 26.612091072041643 0.6443624868873458 29.309596881355063 -12.744180554205451 -2.731299945491985 0.000011743391851728744 -7.243583472436974 -0.0000027301088097359048 -7.376817263429924 -12.166905967667496 -14.140771649218413 -10.28090463156775 16.172052828737733 -6.65490779018862 -9.068475331976902 8.99895644448957 11.664375479680787 0.000022875114073171523 -5.225561407646808 -6.383323160494056e-8
0.11568498882380397 8.74088634144176 1.45217763671048 5.390610560725358 -6.900305921214441 2.5279930927033214 7.754705310145686 -0.4828240494780615 -7.375656411321146 2.329278427361303 12.552568558160635 5.460122422207428 0 0 0 2.1495916853589088 3.1803121745663003 -1.1114374254150117 9.02464909556403 -24.7368563564904 -3.8774910319995994 0 0 0 0 0 0 -4.452918264224367 0.6351863459519171 -4.615767365039878 -13.21422435776564 45.80353138848962 -59.270764338670915 -113.63611298167994 -0.000029341554716688944 0.00009120610633342777 12.365844579982136 40.64188543962335 -5.5303916939634625 -15.877849382353762 2.7339890352364784 9.021938847429041 0.012010971689622042 -0.000002644474174568963 -0.000019263979523577512 -0.23365846445628527 0.0037266094104666555 1.8735277922602123 3.8654413801235696 0.797154950705745 -15.027925437201478 -0.35487476659284345 1.2480644382608195 -33.50464175918496 3.1317726063611877 0.8575205355381489 -27.194092779053232 -10.5875864951501 0.7779593451935546 3.670065891886455 1.1780518976700094 0.1004697062604122 -9.788610677872745 0.8524921903785571 0.05260097838917508 -7.061971663658819 -5.30361550500336 -0.30733842871659645 -3.5331148916426462 2.593565479144572 0.505029766358593 -22.022667498240175 2.1514136032907367 0.3433944320436934 -18.124103595334766 -19.648258516835295 7.5325312582280235 -27.811930589057734 6.349336475978256 4.825677700095595 -0.5745854829001315 7.316352544595493 -0.6514161652478286 8.928033976593934 2.777436146578618 0.9316538844836931 7.543041239950519 14.185905414956178 -6.792806089362575 64.28470556702327 5.9602456199002685 0.000006123292215840406 0.0000030325557879149063 1.6498952261140993 0.23873159707336752 -3.2288415539134414 5.210347715038605 -0.1612785883628218 2.0644200152008074 -1.216150994032922 0.11007223474088824 10.272045160537234 -2.174043726198135 0.34357343424129766 18.0481745492751 4.768597801263407 -4.234504592839994 32.45139848146082 -1.9577264328829957 0.26110118647529806 17.050666413613392 -1.4064419559450134 0.1120573956003496 11.126851228023241 4.878650351132526 -0.9798409577134651 10.45977732327744 -1.7893687214026903 0.24851689202504218 15.660798882827711 -1.5722270803451541 0.5392503822138627 13.401415238663057 4.377117565122227 -2.118983148258767 20.945397239291037 -1.9604146449289752 0.2755923921865294 16.087189520113718 -1.3620772597598423 0.679297276807882 12.076244075966438 -16.25186098198429 -10.769265879943253 -15.617210502255823 -11.526578243377477 6.788970065948204 -2.193276231617568 0.883029113675144 -1.7611925232506904 -2.5965529032882806 6.37367230766562 -3.4014838174338933 -7.499326199826157 -5.950900017652678 26.620834839559873 0.6322584399491648 29.310829944318577 -12.737037022884484 -2.720990908488794 0.00000816130237083754 -7.253412115467655 -0.000004412507840560853 -7.420027742587958 -12.107652918549734 -14.141548939940224 -10.27722125422811 16.124176237752515 -6.620175741564732 -9.006535646145005 9.035575722543973 11.628017809362719 0.0000031072926760105667 -5.23265033754555 -0.000001779636451843766
0.11596056548031893 8.741219260475852 1.449647771749029 5.377383836101975 -6.93924716721448 2.511338382894144 7.754811045311845 -0.37793999934336797 -7.318749553540048 2.3431329801541922 12.607418668941307 5.448505413011301 0 0 0 2.0983033710286523 3.071718544557253 -1.08818550767867 9.348744014350434 -25.292771440195146 -4.163250692647738 0 0 0 0 0 0 -4.441959658927118 0.635117346129544 -4.6280000377010255 -13.107208183113967 45.696149027949964 -59.20260340904649 -113.6823635483715 -0.000041894024440307636 0.00009375893982206402 12.364191645663272 40.73374003444244 -5.603486358715626 -16.025935024882095 2.757452485691316 8.996778453312501 0.012010971689622042 -0.000002644474174568963 -0.000019263979523577512 -0.26293501003395914 0.0047371755880739825 2.116230045337909 3.86826933233162 0.7989146955210727 -15.054230442223224 -0.35487476659284345 1.2480644382608195 -33.50464175918496 3.1315418727433504 0.8573952302238154 -27.1918579893063 -10.690188482385059 0.7830470275157293 3.648181088002653 1.1779844637027785 0.10046641789279734 -9.78791643870493 0.83250676163784 0.05014573116872113 -6.895141211314149 -5.34729342710701 -0.3118842527844229 -3.5565938657280736 2.5934970900239986 0.5050042588800758 -22.022028547433855 2.1428327814363133 0.3405980334125257 -18.04932486995625 -19.63176993163459 7.556217636737447 -27.60524782911814 6.46199857874041 4.76579139714284 -0.5447023234308433 6.805604090055958 -0.6819417070903006 8.993036860293337 2.7783427585185545 0.9309417431911184 7.537322206266039 14.295016574360965 -6.884182001100257 64.2273087495996 5.959528771113901 -0.000015090925680210592 0.000004598051671457191 1.9711951046745686 0.4306726956710644 -3.249715196978181 5.214804526948769 -0.16242889285829007 2.075672364350841 -1.2049022413800754 0.10804835397581154 10.178148991745267 -2.1019157982300083 0.32051955767386026 17.42733203534845 4.7955777874087975 -4.234548682540492 32.37010444757324 -1.9577306993038237 0.26108130935121887 17.05066051470724 -1.3921233457743958 0.10948493077574716 11.007482988564439 4.8889733747384145 -0.9797612249411709 10.442770007603706 -1.7774889224825472 0.24529434683607856 15.559902878486975 -1.5221003263186088 0.5324367037339172 12.965825526220899 4.395619527514799 -2.118700142244264 20.892879532022505 -1.955162017879221 0.2740776735902355 16.042261140669886 -1.332915435501246 0.6758750593648261 11.816386227386879 -16.99443929935463 -10.580246011170777 -15.803928487224999 -10.330241957643384 5.83844349436268 -1.552158369977817 1.273902209269133 -1.9400144123843337 -2.5709264121519158 6.356979514878557 -3.388134479429042 -7.464413105453642 -5.884716297211488 26.622551966392425 0.6148743120142975 29.31136597252818 -12.728203516429103 -2.7081029685486464 0.000016643917005674374 -7.2834424465105485 -0.000004666741020909066 -7.530176452542357 -12.09099369838747 -14.096350115826151 -10.27616790423425 16.0654004785924 -6.663690473668849 -8.879854546422777 9.086131849726682 11.614309676862591 0.0000041259257191389155 -5.246922320016262 0.000009315167586609291
0.11584008281881158 8.74155738136985 1.4475261986042898 5.361210728266311 -6.946366052275751 2.4972262110583627 7.753033031616871 -0.27552379601681526 -7.281571414290725 2.349749084083966 12.629797021155744 5.4222276259846245 0 0 0 2.041508602246686 2.984444320705368 -1.059491858033458 9.615742223833585 -25.75618645893477 -4.390444918555054 0 0 0 0 0 0 -4.429312476995931 0.6344067494045234 -4.621204929362685 -13.0337317983468 45.64945481149601 -59.15973799130966 -113.73899032361591 -0.00004928765849014135 0.00009042298110154008 12.364590899617951 40.72111744101372 -5.68319735395005 -16.274405602839245 2.7966438199873718 8.954422425604333 0.012010971689622042 -0.000002644474174568963 -0.000019263979523577512 -0.2584840273316615 0.004582953968194717 2.0793965906049534 3.878514807043309 0.8053992082565659 -15.149825242347081 -0.35487476659284345 1.2480644382608195 -33.50464175918496 3.1313292567640145 0.8572697114462776 -27.18979424688646 -10.860588795460341 0.7884797265808307 3.5958810962190415 1.1778345876529233 0.10042507650849114 -9.786936166141071 0.835778452628293 0.05055390516535317 -6.922303295829529 -5.4160795218170295 -0.32294588722741135 -3.6315239322747717 2.593388458552533 0.5049413973539485 -22.02098687077196 2.144040768970938 0.34099870046410385 -18.060015677599154 -19.61675705327629 7.546129904041796 -27.502176215180178 6.788598798260645 4.723549196599545 -0.45384993858036937 6.420322022352214 -0.7033261374231278 9.040652521630097 2.8206491225533923 0.9327412024093923 7.544203043992316 14.329206354014373 -6.88670044062113 64.21314934836444 5.961745057245963 4.271771823237771e-8 -0.0000027172275563523793 2.2611349704773582 0.7361870098645281 -3.251831156373447 5.221915649141648 -0.1606109880984294 2.0545028865646295 -1.1955685911024219 0.10639677932595398 10.100459473045788 -2.043386763494446 0.302419262169154 16.924974183251056 4.8350297445423 -4.266694596993833 32.4077902938835 -1.9577437118872145 0.26111714153599114 17.050680475071722 -1.3762228864739634 0.10660806865810532 10.875076111355023 4.909116243262267 -0.982973165646257 10.440404336288108 -1.7676625362320253 0.24260168043185337 15.476233900998606 -1.4807687006794135 0.5249901464692601 12.602621167469627 4.429475443265456 -2.133988094593026 20.91343843314022 -1.9507853889531315 0.27282261203650116 16.004937954584484 -1.3071402931507787 0.6697310940580941 11.581216750826863 -17.68502508894994 -10.221524946431597 -16.016762835693964 -9.311966935347014 4.402053125812583 -0.6217634735856435 1.7241580406423087 -2.1527336436412323 -2.563052852190012 6.33496573144103 -3.4026072288950644 -7.4454325520986915 -5.822350610969069 26.621596942723542 0.6211383920647586 29.311210708471002 -12.712708860543064 -2.7045282356768707 0.000026959404580179797 -7.319496822153034 -0.000002665324523244929 -7.653246429065581 -12.110342381097823 -14.015448851103864 -10.276443590115303 15.996689047056787 -6.7640592598168 -8.746277451710313 9.146821423109133 11.622839768252136 0.000004630511525294401 -5.261715491048446 -0.000001823505216982964
